<svg width="10" height="7" viewBox="0 0 10 7" fill="none" xmlns="http://www.w3.org/2000/svg">
<path d="M1.57031 2.35717V1.07146C1.57031 0.88202 1.64557 0.70034 1.77952 0.566386C1.91347 0.432432 2.09515 0.357178 2.28459 0.357178H3.63976C3.78079 0.357181 3.91867 0.398935 4.03601 0.477177L4.53315 0.808603C4.65049 0.886845 4.78836 0.928599 4.92939 0.928603H7.71312C7.90256 0.928603 8.08424 1.00386 8.21819 1.13781C8.35215 1.27176 8.4274 1.45344 8.4274 1.64288V2.35717" stroke="#59595E" stroke-width="0.571424" stroke-linecap="round" stroke-linejoin="round"/>
<path d="M8.99818 2.97414L8.70854 5.92858C8.70854 6.11781 8.63346 6.2993 8.49978 6.43322C8.36609 6.56713 8.18473 6.64253 7.99551 6.64287H2.00449C1.81527 6.64253 1.63391 6.56713 1.50022 6.43322C1.36654 6.2993 1.29146 6.11781 1.29146 5.92858L1.00182 2.97414C0.995531 2.89551 1.00559 2.81643 1.03137 2.74188C1.05714 2.66733 1.09808 2.59892 1.15159 2.54097C1.2051 2.48301 1.27003 2.43676 1.34229 2.40513C1.41455 2.3735 1.49258 2.35717 1.57146 2.35718H8.43033C8.50906 2.35742 8.58689 2.37393 8.65894 2.40567C8.73099 2.43741 8.7957 2.48369 8.84902 2.54162C8.90234 2.59955 8.94311 2.66787 8.96878 2.7423C8.99445 2.81673 9.00446 2.89566 8.99818 2.97414Z" stroke="#59595E" stroke-width="0.571424" stroke-linecap="round" stroke-linejoin="round"/>
</svg>
