<svg width="10" height="9" viewBox="0 0 10 9" fill="none" xmlns="http://www.w3.org/2000/svg">
<path d="M7.4025 0.680192C7.34535 0.623052 7.2775 0.577728 7.20283 0.546811C7.12816 0.515893 7.04813 0.499987 6.96731 0.5H1.88885C1.77211 0.499975 1.65652 0.522948 1.54867 0.567608C1.44082 0.612268 1.34282 0.677739 1.26028 0.760281C1.17774 0.842823 1.11227 0.940818 1.06761 1.04867C1.02295 1.15652 0.999975 1.27211 1 1.38885V7.61115C0.999975 7.72789 1.02295 7.84348 1.06761 7.95133C1.11227 8.05918 1.17774 8.15718 1.26028 8.23972C1.34282 8.32226 1.44082 8.38773 1.54867 8.43239C1.65652 8.47705 1.77211 8.50003 1.88885 8.5H8.11115C8.34667 8.49929 8.57234 8.40542 8.73888 8.23888C8.90542 8.07234 8.99929 7.84667 9 7.61115V2.53269C9.00001 2.45187 8.98411 2.37184 8.95319 2.29717C8.92227 2.2225 8.87695 2.15465 8.81981 2.0975L7.4025 0.680192ZM5 7.57692C4.75658 7.57692 4.51862 7.50474 4.31622 7.3695C4.11382 7.23426 3.95607 7.04204 3.86292 6.81715C3.76976 6.59226 3.74539 6.34479 3.79288 6.10604C3.84037 5.8673 3.95759 5.648 4.12971 5.47587C4.30184 5.30374 4.52114 5.18652 4.75989 5.13903C4.99863 5.09154 5.2461 5.11592 5.47099 5.20907C5.69589 5.30223 5.88811 5.45998 6.02335 5.66238C6.15859 5.86477 6.23077 6.10273 6.23077 6.34615C6.23097 6.50784 6.19928 6.66797 6.1375 6.81739C6.07572 6.9668 5.98506 7.10256 5.87074 7.21689C5.75641 7.33122 5.62065 7.42187 5.47123 7.48365C5.32182 7.54543 5.16168 7.57713 5 7.57692ZM5.92308 3.26923H2.23077C2.14916 3.26923 2.0709 3.23681 2.0132 3.17911C1.95549 3.12141 1.92308 3.04314 1.92308 2.96154V1.73077C1.92308 1.64916 1.95549 1.5709 2.0132 1.5132C2.0709 1.45549 2.14916 1.42308 2.23077 1.42308H5.92308C6.00468 1.42308 6.08295 1.45549 6.14065 1.5132C6.19835 1.5709 6.23077 1.64916 6.23077 1.73077V2.96154C6.23077 3.04314 6.19835 3.12141 6.14065 3.17911C6.08295 3.23681 6.00468 3.26923 5.92308 3.26923Z" stroke="#59595E" stroke-width="0.615385" stroke-linecap="round" stroke-linejoin="round"/>
</svg>
